<svg xmlns="http://www.w3.org/2000/svg" viewBox="0 0 3536.71 4978.77"><defs><style>.cls-1{fill:#00aeef;}.cls-2{fill:#27aae1;}</style></defs><g id="Слой_2" data-name="Слой 2"><g id="Слой_1-2" data-name="Слой 1"><path class="cls-1" d="M3029.18,4157.21c-23.36,0-46.22,13.42-63.62,35.29l18.89,29.32c12.92-15.41,28.83-24.85,44.73-24.85,24.28,0,45.67,15.51,69.15,24l-13.57-46.75C3067.67,4166.16,3049.81,4157.21,3029.18,4157.21Z"/><path class="cls-1" d="M2965.56,3829.33l18.89,29.33c12.92-15.41,28.83-24.85,44.73-24.85a63.33,63.33,0,0,1,13.76,1.68l-31.88-38.68C2994.25,3801.74,2978.41,3813.19,2965.56,3829.33Z"/><path class="cls-1" d="M1811.22,3312.56c-13.92,15.4-30.32,22.86-46.72,22.86-21,0-40.83-13.44-63.08-22.12L1617.74,3362l5.62,8.73c12.92-15.4,28.83-24.84,44.73-24.84,33.29,0,61.13,29.31,96.41,29.31,22.36,0,46.22-12.42,66.59-34.29Z"/><path class="cls-1" d="M2790.93,3309.14c-23.35,0-46.21,13.42-63.61,35.29l18.89,29.32c12.92-15.4,28.82-24.85,44.72-24.85,1.29,0,2.51.31,3.78.39l9.88-38.87A75.68,75.68,0,0,0,2790.93,3309.14Z"/><path class="cls-1" d="M2079.75,2825.63c-12.41,13.74-26.8,20.8-41.39,22.26l3.6,39.16c19.69-2.79,40-14.1,57.67-33.09Z"/><path class="cls-1" d="M2113.38,2541l-19.87-28.33c-13.92,15.41-30.32,22.86-46.72,22.86-11.22,0-22.12-3.93-33.24-8.88l-15.15,34.24c15.35,7.24,31,14.4,48.39,14.4C2069.15,2575.25,2093,2562.82,2113.38,2541Z"/><path class="cls-1" d="M2652.89,2541,2633,2512.63c-13.92,15.41-30.31,22.86-46.72,22.86-12.85,0-25.29-5.14-38.11-11.09l-10.75,36.23c15.51,7.31,31.26,14.62,48.86,14.62C2608.66,2575.25,2632.51,2562.82,2652.89,2541Z"/><path class="cls-1" d="M2359.13,2395.67c-10.31,6.95-21.31,10.65-32.38,10.65-18.12,0-35.42-10.1-54.14-18.45L2207,2382c-14.82,5.64-28.79,15.89-40.28,30.33l18.89,29.32c12.92-15.4,28.83-24.84,44.73-24.84,33.29,0,61.12,29.31,96.41,29.31,22.36,0,46.22-12.42,66.59-34.29l-9.75-13.9Z"/><path class="cls-1" d="M2727.32,4015.19c17.4-21.87,40.26-35.28,63.61-35.28,37.28,0,65.6,29.32,96.42,29.32,16.4,0,32.8-7.46,46.71-22.87l19.88,28.33c-20.37,21.87-44.23,34.29-66.59,34.29-35.29,0-63.12-29.31-96.42-29.31-15.9,0-31.8,9.44-44.72,24.84Z"/><path class="cls-1" d="M2727.32,4376.8c17.4-21.86,40.26-35.28,63.61-35.28,37.28,0,65.6,29.32,96.42,29.32,16.4,0,32.8-7.45,46.71-22.86l19.88,28.33c-20.37,21.86-44.23,34.29-66.59,34.29-35.29,0-63.12-29.32-96.42-29.32-15.9,0-31.8,9.44-44.72,24.85Z"/><path class="cls-1" d="M2166.72,2697.38c17.4-21.87,40.26-35.29,63.62-35.29,37.27,0,65.6,29.33,96.41,29.33,16.4,0,32.8-7.46,46.72-22.87l19.87,28.33c-20.37,21.87-44.23,34.29-66.59,34.29-35.28,0-63.12-29.32-96.41-29.32-15.9,0-31.81,9.44-44.73,24.85Z"/><path class="cls-1" d="M2727.32,3658.24c17.4-21.86,40.26-35.28,63.61-35.28,37.28,0,65.6,29.32,96.42,29.32,16.4,0,32.8-7.45,46.71-22.86l19.88,28.33c-20.37,21.86-44.23,34.29-66.59,34.29-35.29,0-63.12-29.32-96.42-29.32-15.9,0-31.8,9.44-44.72,24.85Z"/><path class="cls-1" d="M1604.48,3658.24c17.39-21.86,40.25-35.28,63.61-35.28,37.27,0,65.6,29.32,96.41,29.32,16.4,0,32.8-7.45,46.72-22.86l19.87,28.33c-20.37,21.86-44.23,34.29-66.59,34.29-35.28,0-63.12-29.32-96.41-29.32-15.9,0-31.81,9.44-44.73,24.85Z"/><path class="cls-1" d="M2887.35,4736c-30.81,0-59.14-29.32-96.41-29.32-23.36,0-46.22,13.42-63.62,35.29l18.89,29.32c12.92-15.41,28.82-24.85,44.73-24.85,33.29,0,61.12,29.32,96.41,29.32,22.36,0,46.22-12.42,66.59-34.29l-19.88-28.33C2920.15,4728.54,2903.75,4736,2887.35,4736Z"/><path class="cls-1" d="M1333.84,4560.56c17.4-21.87,40.26-35.28,63.62-35.28,37.27,0,65.6,29.32,96.41,29.32,16.4,0,32.8-7.46,46.72-22.87l19.87,28.33c-20.37,21.87-44.23,34.29-66.59,34.29-35.29,0-63.12-29.31-96.41-29.31-15.9,0-31.81,9.44-44.73,24.84Z"/><path class="cls-1" d="M1602.69,4747.75c17.39-21.87,40.25-35.29,63.61-35.29,37.28,0,65.6,29.33,96.41,29.33,16.41,0,32.8-7.46,46.72-22.87l19.88,28.33c-20.38,21.87-44.23,34.29-66.6,34.29-35.28,0-63.11-29.32-96.41-29.32-15.9,0-31.81,9.44-44.73,24.85Z"/><path class="cls-1" d="M1886.77,4560.56c17.39-21.87,40.25-35.28,63.61-35.28,37.27,0,65.6,29.32,96.41,29.32,16.4,0,32.8-7.46,46.72-22.87l19.87,28.33c-20.37,21.87-44.23,34.29-66.59,34.29-35.28,0-63.11-29.31-96.41-29.31-15.9,0-31.81,9.44-44.73,24.84Z"/><path class="cls-1" d="M2168.5,4747.75c17.4-21.87,40.26-35.29,63.62-35.29,37.27,0,65.6,29.33,96.41,29.33,16.4,0,32.8-7.46,46.72-22.87l19.87,28.33c-20.37,21.87-44.23,34.29-66.59,34.29-35.28,0-63.12-29.32-96.41-29.32-15.9,0-31.81,9.44-44.73,24.85Z"/><path class="cls-1" d="M2447.27,4560.56c17.39-21.87,40.25-35.28,63.61-35.28,37.27,0,65.6,29.32,96.41,29.32,16.4,0,32.8-7.46,46.72-22.87l19.87,28.33c-20.37,21.87-44.23,34.29-66.59,34.29-35.28,0-63.12-29.31-96.41-29.31-15.9,0-31.81,9.44-44.73,24.84Z"/><path class="cls-1" d="M1604.48,4379.66c17.39-21.87,40.25-35.29,63.61-35.29,37.27,0,65.6,29.33,96.41,29.33,16.4,0,32.8-7.46,46.72-22.87l19.87,28.33c-20.37,21.87-44.23,34.29-66.59,34.29-35.28,0-63.12-29.32-96.41-29.32-15.9,0-31.81,9.45-44.73,24.85Z"/><path class="cls-1" d="M2168.5,4379.66c17.4-21.87,40.26-35.29,63.62-35.29,37.27,0,65.6,29.33,96.41,29.33,16.4,0,32.8-7.46,46.72-22.87l19.87,28.33c-20.37,21.87-44.23,34.29-66.59,34.29-35.28,0-63.12-29.32-96.41-29.32-15.9,0-31.81,9.45-44.73,24.85Z"/><path class="cls-1" d="M1338,4192.5c17.4-21.87,40.26-35.29,63.62-35.29,37.27,0,65.6,29.33,96.41,29.33,16.4,0,32.8-7.46,46.72-22.87l19.87,28.33c-20.37,21.87-44.23,34.29-66.59,34.29-35.28,0-63.12-29.32-96.41-29.32-15.9,0-31.81,9.45-44.73,24.85Z"/><path class="cls-1" d="M1890.73,4191c17.39-21.86,40.25-35.28,63.61-35.28,37.28,0,65.6,29.32,96.41,29.32,16.41,0,32.8-7.46,46.72-22.86l19.88,28.33c-20.38,21.86-44.23,34.29-66.6,34.29-35.28,0-63.11-29.32-96.41-29.32-15.9,0-31.81,9.44-44.73,24.84Z"/><path class="cls-1" d="M2447.27,4191c17.39-21.86,40.25-35.28,63.61-35.28,37.27,0,65.6,29.32,96.41,29.32,16.4,0,32.8-7.46,46.72-22.86l19.87,28.33c-20.37,21.86-44.23,34.29-66.59,34.29-35.28,0-63.12-29.32-96.41-29.32-15.9,0-31.81,9.44-44.73,24.84Z"/><path class="cls-1" d="M1610.41,4015.19c17.4-21.87,40.26-35.28,63.62-35.28,37.27,0,65.6,29.32,96.41,29.32,16.4,0,32.8-7.46,46.72-22.87l19.87,28.33c-20.37,21.87-44.23,34.29-66.59,34.29-35.28,0-63.12-29.31-96.41-29.31-15.9,0-31.81,9.44-44.73,24.84Z"/><path class="cls-1" d="M2168.5,4015.19c17.4-21.87,40.26-35.28,63.62-35.28,37.27,0,65.6,29.32,96.41,29.32,16.4,0,32.8-7.46,46.72-22.87l19.87,28.33c-20.37,21.87-44.23,34.29-66.59,34.29-35.28,0-63.12-29.31-96.41-29.31-15.9,0-31.81,9.44-44.73,24.84Z"/><path class="cls-1" d="M1873,3173.19c17.39-21.86,40.25-35.28,63.61-35.28,37.28,0,65.6,29.32,96.41,29.32,16.41,0,32.8-7.45,46.72-22.86l19.88,28.33c-20.38,21.86-44.23,34.29-66.6,34.29-35.28,0-63.11-29.32-96.41-29.32-15.9,0-31.81,9.44-44.73,24.85Z"/><path class="cls-1" d="M1338,3826.83c17.4-21.87,40.26-35.28,63.62-35.28,37.27,0,65.6,29.32,96.41,29.32,16.4,0,32.8-7.46,46.72-22.87l19.87,28.33c-20.37,21.87-44.23,34.29-66.59,34.29-35.28,0-63.12-29.31-96.41-29.31-15.9,0-31.81,9.44-44.73,24.84Z"/><path class="cls-1" d="M1890.73,3826.83c17.39-21.87,40.25-35.28,63.61-35.28,37.28,0,65.6,29.32,96.41,29.32,16.41,0,32.8-7.46,46.72-22.87l19.88,28.33c-20.38,21.87-44.23,34.29-66.6,34.29-35.28,0-63.11-29.31-96.41-29.31-15.9,0-31.81,9.44-44.73,24.84Z"/><path class="cls-1" d="M2447.27,3826.83c17.39-21.87,40.25-35.28,63.61-35.28,37.27,0,65.6,29.32,96.41,29.32,16.4,0,32.8-7.46,46.72-22.87l19.87,28.33c-20.37,21.87-44.23,34.29-66.59,34.29-35.28,0-63.12-29.31-96.41-29.31-15.9,0-31.81,9.44-44.73,24.84Z"/><path class="cls-1" d="M2168.5,3658.24c17.4-21.86,40.26-35.28,63.62-35.28,37.27,0,65.6,29.32,96.41,29.32,16.4,0,32.8-7.45,46.72-22.86l19.87,28.33c-20.37,21.86-44.23,34.29-66.59,34.29-35.28,0-63.12-29.32-96.41-29.32-15.9,0-31.81,9.44-44.73,24.85Z"/><path class="cls-1" d="M2168.5,3339.06c17.4-21.86,40.26-35.28,63.62-35.28,37.27,0,65.6,29.32,96.41,29.32,16.4,0,32.8-7.45,46.72-22.86l19.87,28.33c-20.37,21.86-44.23,34.29-66.59,34.29-35.28,0-63.12-29.32-96.41-29.32-15.9,0-31.81,9.44-44.73,24.85Z"/><path class="cls-1" d="M2598.39,3170.33c-30.82,0-59.14-29.32-96.42-29.32-23.35,0-46.21,13.41-63.61,35.28l18.89,29.32c12.92-15.4,28.82-24.84,44.72-24.84,33.3,0,61.13,29.31,96.42,29.31,22.36,0,46.22-12.42,66.59-34.29l-19.87-28.32C2631.19,3162.87,2614.79,3170.33,2598.39,3170.33Z"/><path class="cls-1" d="M2166.72,3012.6c17.4-21.86,40.26-35.28,63.62-35.28,37.27,0,65.6,29.32,96.41,29.32,16.4,0,32.8-7.46,46.72-22.86l19.87,28.33c-20.37,21.86-44.23,34.29-66.59,34.29-35.28,0-63.12-29.32-96.41-29.32-15.9,0-31.81,9.44-44.73,24.84Z"/><path class="cls-1" d="M2437,2861.11c17.39-21.87,40.25-35.29,63.61-35.29,37.27,0,65.6,29.33,96.41,29.33,16.4,0,32.8-7.46,46.72-22.87l19.87,28.33c-20.37,21.87-44.23,34.29-66.59,34.29-35.28,0-63.12-29.32-96.41-29.32-15.9,0-31.81,9.45-44.73,24.85Z"/><polygon class="cls-1" points="1584.49 1589.13 2341.68 1589.13 2309.58 1500.53 1620.23 1500.53 1584.49 1589.13"/><polygon class="cls-1" points="1832.68 1290.82 2128.45 1288.48 2055.48 809.72 1924.25 793.32 1832.68 1290.82"/><path class="cls-2" d="M3198.05,1405.8a217.47,217.47,0,0,1-66.57-10.52C3039,1365.48,2988,1266,3017.75,1173.5c24.39-75.68,105.72-117.4,181.45-93.06a118.71,118.71,0,0,1,76.5,149.16c-16.6,51.45-72,79.83-123.33,63.26a81.68,81.68,0,0,1-52.66-102.68,68.44,68.44,0,0,1,86.12-44.18,58,58,0,0,1,37.4,72.91l-30.29-9.73a26.17,26.17,0,0,0-16.87-32.89,36.61,36.61,0,0,0-46.06,23.62,49.84,49.84,0,0,0,32.09,62.66,66.23,66.23,0,0,0,83.31-42.73,86.81,86.81,0,0,0-56-109.11c-58.89-19-122.4,13.53-141.4,72.5-24.41,75.82,17.39,157.34,93.18,181.76a184.52,184.52,0,0,0,232.22-119,234.65,234.65,0,0,0-151.38-295.27c-156-50.3-323.81,35.79-374.09,191.79l-30.29-9.73a329,329,0,0,1,414.11-212.35,266.42,266.42,0,0,1,171.94,335.29,216.66,216.66,0,0,1-205.68,150.12Z"/><path class="cls-2" d="M2844.88,1445.23a147.32,147.32,0,0,1-45.11-7.11,121.42,121.42,0,0,1-78.25-152.58,100.17,100.17,0,0,1,126.07-64.66,83.3,83.3,0,0,1,53.77,104.87,69.87,69.87,0,0,1-87.87,45.06,59.05,59.05,0,0,1-38.13-74.31,50.43,50.43,0,0,1,63.48-32.56,43.58,43.58,0,0,1,28.08,54.76l-30.3-9.73a11.74,11.74,0,0,0-7.54-14.74,18.63,18.63,0,0,0-23.43,12,27.26,27.26,0,0,0,17.58,34.29,38,38,0,0,0,47.84-24.53,51.45,51.45,0,0,0-33.22-64.82,68.36,68.36,0,0,0-86,44.1,89.55,89.55,0,0,0,57.71,112.56c60.67,19.55,126.09-13.95,145.69-74.69,25.13-78.06-17.9-162-95.93-187.14-99.6-32.1-206.85,22.85-238.92,122.48l-30.29-9.74c37.45-116.35,162.61-180.49,278.94-143,94.73,30.54,147,132.44,116.5,227.17C2965.37,1405.34,2907.27,1445.23,2844.88,1445.23Z"/><path class="cls-2" d="M3152.48,1873.45a73.65,73.65,0,0,1-22.56-3.58,60.69,60.69,0,0,1-39.17-76.42,50.73,50.73,0,0,1,63.81-32.72,42.67,42.67,0,0,1,27.53,53.72,36.2,36.2,0,0,1-45.63,23.4,31.18,31.18,0,0,1-20.1-39.18l20.18,6.51a10,10,0,0,0,6.45,12.5,15.08,15.08,0,0,0,18.92-9.74,21.53,21.53,0,0,0-13.86-27,29.57,29.57,0,0,0-37.13,19.06,39.55,39.55,0,0,0,25.51,49.73,52.1,52.1,0,0,0,65.51-33.6,67.77,67.77,0,0,0-43.69-85.22c-47.08-15.06-95.75,23.19-109.88,67.07l-20.18-6.51c17.56-54.54,76.58-100,136.56-80.73a89,89,0,0,1,57.36,111.9,73.42,73.42,0,0,1-69.63,50.85Z"/><path class="cls-2" d="M1452.43,1724.71l43.36-4.24s-179.39-293.87-348.15-393l-211.19,18.22s275.27,232.29,328.87,283.51,224.24,263.12,239,284.2,130.78,164.06,130.78,164.06Z"/><polygon class="cls-2" points="2143.13 2352.02 2161.97 2375.58 2191.2 2378.32 2213.07 2307.63 2143.13 2352.02"/><path class="cls-2" d="M2020.2,2493.18l-49.29,113.91-20.32-3.31-174-310.22,241.28,116,53.09-31.22s18.83,53.12,13.52,75S2020.2,2493.18,2020.2,2493.18Z"/><path class="cls-2" d="M305.74,2677.78a44.48,44.48,0,1,0-8.71,5.83A44.9,44.9,0,0,0,305.74,2677.78Zm-50.59-40.66a22.79,22.79,0,1,1,1.4,17.38A22.62,22.62,0,0,1,255.15,2637.12Z"/><path class="cls-2" d="M213.84,2951.31l32.48-19.76c45,64.11,131.65,87,203.31,50.39a159.51,159.51,0,0,0,78.14-194.36l35-14.77a10.44,10.44,0,0,0,2.82-1.75,10.78,10.78,0,0,0-2.94-18.18l-62.95-25.6a10.8,10.8,0,0,0-14.06,5.93l-25.6,62.95a10.79,10.79,0,0,0,14.18,14L507.86,2796a138.44,138.44,0,0,1-40.47,148.12L341,2697a83.18,83.18,0,1,0-58.82,30.09l126.38,247.06a138.43,138.43,0,0,1-143.79-53.86l31.17-19a11.07,11.07,0,0,0,1.41-1,10.78,10.78,0,0,0-4.46-18.67l-66-16.08a10.8,10.8,0,0,0-13,7.93l-16.08,66a10.79,10.79,0,0,0,16.09,11.77Zm287.73-200,28.84,11.72-40.56,17.11ZM298,2710.67a10.81,10.81,0,0,0-11.33-5.74,61.61,61.61,0,1,1,33.72-17.25,10.79,10.79,0,0,0-2,12.54l129.64,253.44-20.42,10.45Zm-65.75,178.44,30.24,7.36-37.6,22.88Z"/><path class="cls-1" d="M379.78,4210.2c-29.41,20.95-36.39,58.07-16.24,86.36,20.48,28.76,57,34.18,86.92,12.9,29.41-20.94,36.39-58.07,16.24-86.36C446.22,4194.34,409.67,4188.92,379.78,4210.2Zm56.58,79.45c-17.56,12.5-39.93,9.11-52-7.89-12.3-17.28-8.28-39,9.57-51.75,17.55-12.5,39.92-9.11,52,7.89C458.42,4255.46,454.49,4276.74,436.36,4289.65Z"/><path class="cls-1" d="M466.13,4157.11c-29.41,21-36.39,58.07-16.24,86.36,20.48,28.76,57,34.18,86.92,12.9,29.4-20.94,36.38-58.07,16.24-86.36C532.57,4141.25,496,4135.83,466.13,4157.11Zm56.57,79.45c-17.55,12.5-39.92,9.11-52-7.89-12.31-17.28-8.28-39,9.56-51.75,17.56-12.5,39.93-9.11,52,7.89C544.77,4202.37,540.83,4223.65,522.7,4236.56Z"/><path class="cls-1" d="M297.4,4268.87c-29.4,20.94-36.38,58.07-16.24,86.36,20.48,28.75,57,34.18,86.93,12.89,29.4-20.94,36.38-58.07,16.23-86.36C363.84,4253,327.29,4247.58,297.4,4268.87ZM354,4348.32c-17.56,12.5-39.93,9.11-52-7.89-12.31-17.28-8.29-39,9.56-51.75,17.55-12.51,39.93-9.11,52,7.88C376,4314.12,372.11,4335.4,354,4348.32Z"/><path class="cls-1" d="M385.74,4311c-29.41,20.94-36.39,58.07-16.24,86.36,20.48,28.76,57,34.18,86.92,12.9,29.4-20.95,36.38-58.07,16.24-86.36C452.18,4295.12,415.62,4289.7,385.74,4311Zm56.57,79.45c-17.55,12.5-39.92,9.11-52-7.89-12.31-17.28-8.28-39,9.56-51.75,17.56-12.5,39.93-9.11,52,7.89C464.38,4356.23,460.44,4377.51,442.31,4390.43Z"/><path class="cls-1" d="M471.1,4256.51c-29.41,20.94-36.39,58.07-16.24,86.36,20.48,28.75,57,34.18,86.92,12.89,29.41-20.94,36.39-58.07,16.24-86.36C537.54,4240.65,501,4235.22,471.1,4256.51ZM527.67,4336c-17.55,12.51-39.92,9.12-52-7.88-12.3-17.28-8.28-39,9.56-51.75,17.56-12.51,39.93-9.12,52,7.88C549.74,4301.76,545.81,4323,527.67,4336Z"/><path class="cls-1" d="M475.54,4362.37c-29.4,20.94-36.38,58.07-16.24,86.36,20.48,28.76,57,34.18,86.93,12.9,29.4-20.95,36.38-58.07,16.23-86.36C542,4346.51,505.43,4341.09,475.54,4362.37Zm56.58,79.45c-17.56,12.5-39.93,9.11-52-7.89-12.31-17.28-8.29-39,9.56-51.75,17.55-12.5,39.93-9.11,52,7.89C554.18,4407.62,550.25,4428.91,532.12,4441.82Z"/><path class="cls-1" d="M389.61,4196.82a11.06,11.06,0,0,1,.75,15.82l-10.89,11.7-2.6-2.41c-28.57-24.73-50.84-53-34.9-94.52,15.11-39.32,50.57-51.78,83.76-39,24,9.21,43.48,33.64,32.15,63.13-8.38,21.82-27.07,31.91-46.43,24.47-9.2-3.54-15.85-9.5-19.31-17.26a11.14,11.14,0,0,1,4.74-14.26h0a11.15,11.15,0,0,1,14,2.78,15.32,15.32,0,0,0,6.35,4.52c8.6,3.3,14.88-2,17.36-8.49,4.49-11.67-2.34-24.17-18.93-30.55-15.36-5.9-39.56-.74-49,23.84-9.09,23.65,5.24,43.26,20.91,58.45Z"/><path class="cls-1" d="M282.7,4105.72c7.26,1.2,13.05,4.58,16.75,9.77,3.29,4.61,4.69,11,6.17,17.79,1.82,8.3,3.88,17.72,9.88,26.14,7.11,10,19.38,16.52,33.65,18l4.62.46,8.89-25.63-7.18-.91c-7.54-1-13.46-4-16.68-8.5-3.76-5.27-5.24-12-6.8-19.19-1.82-8.33-3.69-16.94-9.25-24.73-7-9.76-18.91-16.61-33.66-19.28l-5.16-.93-7.82,26Z"/><path class="cls-1" d="M2009.91,528.06c21.06,18.36,33.43,41.81,32.38,65.14-1.69,37.24-32.26,64.21-33.65,95-.74,16.39,6,33.1,20.73,47.7l-29.2,18.58c-20.92-21.34-32.25-45.74-31.24-68.08,1.59-35.24,32.14-61.72,33.64-95,.72-15.88-8-32.2-22.8-45.8Z"/><path class="cls-2" d="M3097.12,1724.42a147.48,147.48,0,0,1-40.85-5.77,121.36,121.36,0,0,1-83.19-150c15.2-53.14,70.86-84.07,123.87-68.7a83.26,83.26,0,0,1,57.17,103,69.83,69.83,0,0,1-86.37,47.9,59.09,59.09,0,0,1-40.49-73,50.41,50.41,0,0,1,62.34-34.59,43.51,43.51,0,0,1,29.85,53.83l-30.56-8.8a11.69,11.69,0,0,0-8.07-14.46,18.52,18.52,0,0,0-23,12.77,27.31,27.31,0,0,0,18.67,33.71,38.16,38.16,0,0,0,47.05-26.09,51.54,51.54,0,0,0-35.35-63.72,68.4,68.4,0,0,0-84.56,46.88A89.61,89.61,0,0,0,3065,1688.09a115.79,115.79,0,0,0,143.18-79.43,148.75,148.75,0,0,0-102-183.91c-48.2-13.78-99.4-7.11-144.08,19a197.31,197.31,0,0,0-90.71,116.55l-30.57-8.75a229,229,0,0,1,105.26-135.3c52.19-30.49,112.18-38.36,168.85-22.07a180.45,180.45,0,0,1,123.82,223.23,147.72,147.72,0,0,1-141.64,107Z"/><path class="cls-1" d="M831,4599.48s1234.43,761.18,2319.46,75.32c0,0-895.56,544.59-1911.45-113.06,0,0-110.68-158.4-252.19-137.59,0,0-77.88,20.82-108.81,90.64S831,4599.48,831,4599.48Z"/><path class="cls-1" d="M2447.27,3500.47c17.39-21.87,40.25-35.29,63.61-35.29,37.27,0,65.6,29.32,96.41,29.32,16.4,0,32.8-7.45,46.72-22.86l19.87,28.33c-20.37,21.86-44.23,34.29-66.59,34.29-35.28,0-63.12-29.32-96.41-29.32-15.9,0-31.81,9.44-44.73,24.85Z"/><path class="cls-1" d="M1873,3500.47c17.39-21.87,40.25-35.29,63.61-35.29,37.28,0,65.6,29.32,96.41,29.32,16.41,0,32.8-7.45,46.72-22.86l19.88,28.33c-20.38,21.86-44.23,34.29-66.6,34.29-35.28,0-63.11-29.32-96.41-29.32-15.9,0-31.81,9.44-44.73,24.85Z"/><polygon points="2143.37 1314.79 1822.41 1314.79 1913.78 801.16 1945.11 806.74 1860.38 1282.97 2106.47 1282.97 2036.8 817.65 2068.24 812.94 2143.37 1314.79"/><polygon points="2208.25 2382.29 2179.43 2368.84 2461.39 1763.52 2005.91 1858.22 1960.09 1849.42 1966.1 1818.19 2005.31 1825.69 2033.85 1819.13 2516.94 1719.55 2208.25 2382.29"/><path d="M2008.7,2738.26C1406.3,1662.14,1081,1491.81,1077.81,1490.2l14-28.57c13.39,6.54,335.21,172.41,944.67,1261.1Z"/><path d="M2138.26,4978.77c-712.2,0-1295.38-353.5-1303.88-358.78l16.73-27.07c12.28,7.6,1244.12,753.7,2305.5,57.06l17.44,26.57C2831,4901.78,2470.52,4978.77,2138.26,4978.77Z"/><path d="M2995.28,4759.5l-68-72.78c-82.07-87.81.71-218,28.74-256.71l-48.18-52.11,18.24-9.68c62.83-33.33,162.42-101.87,162.29-143.81-.11-44.12-99.38-158.19-161.94-219.73l-11.89-11.7,134.08-124c-176.1-192.09-120.46-364-89.79-427.07l-201.6,3.11,33.9-142.6-86.91,21.6,61-210.44L2662,3068.87l156.9-128.74-148,27.53-26.16-73.35,149.68-138.45-48.71-101.45-45.88,130.93-126.23,1.55,64.88-290.12-71.3-19.5-57.66,172.62-96.37-14.65,39-227.41-301.66-19-65.54-89.1-20.31,18.78c17.55,39,52.27,125.9,28.82,157.81-4.41,6-14.9,15.44-34.42,12.79-32.13-4.48-61.49,71.69-74.92,130.82l154.58,74.23,6.32,74.34-104.71-18.68,13.12,149.31-13.75,3C1922.17,2927.23,1849,2970.94,1822,3032c-29.75,67.25,8.64,134.51,9,135.19l5.28,9.05-88.45,119.58-3.55,1.7c-505,242.88-436.89,1176.31-436.15,1185.72l.77,9.57-99.66,62.91-9-10c-27.56-30.81-124.73-129.67-210.71-110.12-55.64,12.68-99.41,72.86-130,178.83l-2.68,9.21-9.38,1.94c-16.87,3.47-413.87,83.25-522.57-77.86-7.11-10.53-28.73-42.57-11.84-66.87,25.62-36.94,114-18.79,256.56,15.5,56.67,13.61,134.23,32.29,148.42,25.94,23.43-21.87,37-77.37,41.59-104.49L581.43,4223.1l-56.84-167.51L23.51,4112.81,0,3982l440.41-40.46,113.25-88.42-97.42-70.53,176.65-173.33L545.7,3329.09l-201-296.3,257.43-47.63-18.51-321.32L457.15,2386.91l-68.54,53-4.71-25.7c-1.2-6.54-28.35-161.25,53.89-267.06,43.36-55.8,108.73-87.07,194.3-93l19.19-1.31-22.3,184,125.51-11.42c29.56-24.42,205.79-156.39,393.45-.91l23.67-206.44L1030.1,2125.52l-7.82-230.28L777,1759.11l279.39-78.84,41.09-173.66L879.35,1330.32l356.37-31.85L1074.28,1209l98-300.79,149.88,21.24,13.07-180.69,197.52-42.1,203.74-159.34,210.3-1.34-1.32,243.49,93.2,8.58,80-646.77-121.47-49.16L1994.37,0l430.19,6,233.1,1583.57,247.5-51.65L3155.92,1989l-118.49,185.64,234.82,253.9L3119.81,2695,3389,2643l88.86,265.82-174.73,34c15.94,134.95,125,1075.78,99.76,1314.3l133.83,156.51L3526.24,4424c-1.91,1.91-195.92,192.5-520.71,331.14ZM2959,4386.34l38.76,42L2989.1,4439c-1.15,1.45-115,144.24-38.58,226l52.77,56.45C3274,4604,3449.36,4451.77,3493.1,4411.52l-123.46-144.4.87-7c29.28-234.84-99.4-1317.38-100.72-1328.29l-1.75-14.68,168.14-32.7-68.51-205-309.92,59.85L3233.05,2433,2997.41,2178.2l121.5-190.33-230.15-414-257.68,53.78L2397,37.48l-369.93-5.22,1.34,48.15,124.81,50.52-86.81,701.62-153-14.11L1914.76,578l-167.26,1.07-201,157.15L1365.2,774.89l-13.83,190.86-157.15-22.29-81.55,250.43,229.19,127L960.5,1355l172.56,139.46-50,211.33-223.07,63,193.51,107.39,6.34,186.86,151.9-115.29-39.28,342.68-23.16-22.09c-191.84-183.26-370-22.72-377.48-15.81l-4,3.69-175.14,15.94L615,2087.82c-66.6,8.2-117.67,34.64-152,78.74-54.41,69.9-54.6,168.11-50.94,215l57.33-44.35,145.83,321.84,20.26,352.3L398.34,3055.2l177.05,262.19L669,3618.29,505.4,3778.88l101.18,73.28-154,120.18-4.65.41-410.5,37.7,12.08,67.37,496.92-56.73,64,188.59L793.2,4407.26l-1,7.41c-.52,3.8-12.88,93.94-53.8,131.75-18.16,16.84-62.75,8.06-176.29-19.22-72.67-17.44-207.86-50-223-28.3-1.56,2.22-1,11.57,12.06,30.92,88.6,131.26,420.56,77.26,480.49,66.3,34.12-112.12,84.81-176.56,150.75-191.62,93.61-21.33,188.12,62.93,232.39,110l60.88-38.41c-7-106.49-47.38-961.64,451.19-1205.54l71.68-96.87c-11.23-23.73-35.13-87.59-5.9-154.19,30.1-68.54,106.27-117.45,226.53-145.5l-14.29-162.81,104.82,18.67-1.29-14.9L1948,2637.87l2.35-12.06c5.82-29.88,38.93-178.64,113-168.22,3.23.43,4.37-.08,4.4-.08,8.7-8.34-5.44-69.64-36.82-136.05l-5-10.55,63.48-58.73L2167.27,2358l322.17,20.34L2450,2608.67l37.81,5.74,58.7-175.74,129.64,35.4-62.74,280.51,63.78-.79,63.92-182.5,92.14,192-151.49,140.09,10,28,243-45.19L2722.43,3060.4l81.2,35.13-53.48,184.3,84-20.89-36.52,153.65,219.48-3.45-18,25.59c-5.6,8-134.59,197.48,83.52,424l11.27,11.7L2960.53,3993.8c40.6,41.23,159.5,167.38,159.66,230.53C3120.36,4287.29,3005.88,4359.44,2959,4386.34Z"/><path d="M2302.16,4901.26c-318.26,0-687-87.05-1087.27-339.61l-3.94-3.5c-.13-.19-4-4.95-10.71-12.52l-12.52-14,88-55.53c-7-106.49-47.35-961.64,451.19-1205.54l71.68-96.87c-11.23-23.73-35.13-87.59-5.9-154.19,30.1-68.54,106.27-117.45,226.53-145.5l-14.29-162.81,104.82,18.67-1.29-14.9L1948,2637.87l2.35-12.06c5.82-29.88,38.93-178.64,113-168.22,3.23.43,4.37-.08,4.4-.08,8.7-8.34-5.41-69.64-36.82-136.05l-5-10.55,63.51-58.73L2167.27,2358l322.17,20.34L2450,2608.67l37.81,5.74,58.7-175.74,129.64,35.4-62.74,280.51,63.78-.79,63.92-182.5,92.14,192-151.49,140.09,10,28,243-45.19L2722.43,3060.4l81.2,35.13-53.48,184.3,84-20.89-36.52,153.65,219.48-3.45-18,25.59c-5.6,8-134.59,197.48,83.52,424l11.27,11.7L2960.53,3993.8c40.6,41.23,159.5,167.38,159.66,230.53.17,63-114.31,135.11-161.19,162l38.76,42L2989.1,4439c-1.15,1.45-115,144.24-38.58,226l75.9,81.2-20.89,8.91C2817.71,4835.34,2579,4901.26,2302.16,4901.26Zm-1065-363.21c721.74,453.05,1338.25,360.26,1734.94,196.63l-44.78-48c-82.07-87.81.71-218,28.74-256.71l-48.18-52.11,18.24-9.68c62.83-33.33,162.42-101.87,162.29-143.81-.11-44.15-99.38-158.21-161.94-219.73l-11.89-11.7,134.08-124c-176.1-192.09-120.46-364-89.79-427.07l-201.6,3.11,33.9-142.6-86.91,21.6,61-210.44L2662,3068.87l156.9-128.74-148,27.53-26.16-73.35,149.68-138.45-48.71-101.45-45.88,130.93-126.23,1.55,64.88-290.12-71.3-19.5-57.66,172.62-96.37-14.65,39-227.41-301.66-19-65.54-89.1-20.31,18.78c17.55,39,52.27,125.9,28.82,157.81-4.41,6-14.9,15.44-34.42,12.79-30.16-3.93-61.52,71.63-74.94,130.82l154.6,74.23,6.32,74.34-104.71-18.68,13.12,149.31-13.75,3c-117.64,25.21-190.91,69-217.79,130.24-29.66,67.56,8.75,134.16,9.13,134.84l5.36,9.08-88.5,119.58-3.55,1.7c-504.8,242.77-436.89,1176.31-436.15,1185.72l.77,9.57Z"/><rect x="2596.04" y="7.01" width="32.49" height="2767.32" transform="matrix(0.99, -0.15, 0.15, 0.99, -174.68, 395.26)"/><rect x="2422.3" y="1936.08" width="805.68" height="32.45" transform="translate(399.68 4383.37) rotate(-79.71)"/><polygon points="2767.37 3303.56 2739.27 3287.32 3232.61 2433.01 2813.19 1977.12 2837.09 1955.14 3272.69 2428.58 2767.37 3303.56"/><rect x="2771.09" y="2533.18" width="510.78" height="32.48" transform="translate(-838.03 1698.12) rotate(-27.69)"/><rect x="2952" y="2132.09" width="32.49" height="456.25" transform="translate(-580.44 3697.35) rotate(-59.14)"/><rect x="2590.48" y="3028.78" width="974.8" height="32.49" transform="translate(-1216.82 3593.68) rotate(-51.97)"/><polygon points="2982.56 3466.07 2954.46 3449.77 3249.07 2941.99 3171.48 2922.8 3179.3 2891.3 3298.88 2920.89 2982.56 3466.07"/><rect x="3350.27" y="2744.77" width="32.44" height="205.82" transform="translate(-739.75 4454.35) rotate(-61.6)"/><polygon points="1952.27 2637.02 1850.87 2467.57 1778.77 2342.93 1421.53 1701.89 1969.38 1818.91 1962.44 1849.96 1888.4 1833.37 1483.37 1747.55 1806.44 2327.23 1878.29 2451.44 1979.55 2620.67 1952.27 2637.02"/><polygon points="2319.33 1553.79 2286.03 214.01 2007.06 106.11 2018.54 76.41 2317.31 191.98 2351.15 1553.03 2319.33 1553.79"/><rect x="2324.99" y="2059.8" width="31.82" height="325.07"/><path d="M2269.65,1516.45h-597l65.5-233.48h466Zm-555-31.83h513L2180,1314.79H1762.26Z"/><polygon points="2395.83 1768 2304.65 1516.45 1637.21 1516.45 1542.26 1751.87 1512.73 1739.95 1615.72 1484.62 2326.96 1484.62 2425.74 1757.17 2395.83 1768"/><rect x="1998.93" y="1841.82" width="31.84" height="647.17" transform="translate(-61.02 58.42) rotate(-1.64)"/><rect x="1611.1" y="715.37" width="1135.99" height="31.79" transform="translate(1369.59 2882.52) rotate(-87.93)"/><path d="M2370.62,1605H1567.16l48.56-120.41H2327ZM1614.3,1573.2h710.94l-20.59-56.75H1637.21Z"/><polygon points="2008.1 1950.6 1500.73 1833.26 1507.89 1802.26 2008.37 1918.01 2439.08 1826.4 2445.7 1857.51 2008.1 1950.6"/><polygon points="2022.61 2429.45 1759.99 2303.23 1773.77 2274.58 2021.14 2393.48 2064.17 2368.32 2080.25 2395.77 2022.61 2429.45"/><polygon points="2141.41 2353.29 2126.15 2325.35 2216.81 2275.86 2229.47 2264.21 2251.01 2287.67 2233.76 2302.87 2141.41 2353.29"/><polygon points="1233.4 1688.85 1097.8 1507.32 1123.28 1488.29 1248.88 1656.43 1303.23 1654.32 1304.48 1686.09 1233.4 1688.85"/><polygon points="1448.59 2055.53 1217.35 1983.76 1203.13 1994.97 1183.45 1969.98 1210.79 1948.44 1396.43 2006.05 1329.23 1823.64 1375.46 1758.24 1401.43 1776.61 1364.88 1828.34 1448.59 2055.53"/><path d="M1490.37,1743.34c-133.07-243-356-405.94-358.24-407.58l18.65-25.78c2.3,1.67,231,168.82,367.47,418.1Z"/><polygon points="1662.69 1510.38 1635.81 1489.6 1282.04 1324.11 1295.54 1295.3 1653.88 1463.35 1682.15 1485.23 1662.69 1510.38"/><polygon points="1543.4 1421.36 1511.58 1421.36 1511.58 1399.71 1523.72 721.16 1555.54 721.71 1543.4 1421.36"/><rect x="1145.46" y="1119.32" width="375.36" height="31.83" transform="matrix(0.02, -1, 1, 0.02, 172.91, 2446.68)"/><polygon points="1384.67 2891.39 1123.77 2217.16 1642.05 2530.01 1625.59 2557.24 1187.03 2292.51 1414.36 2879.9 1384.67 2891.39"/><rect x="358.65" y="2935.28" width="1039.08" height="31.82" transform="translate(-503.62 199.58) rotate(-10.09)"/><rect x="1099.1" y="2142.15" width="31.81" height="767.05" transform="translate(-803.02 539.87) rotate(-20.19)"/><rect x="945.16" y="2168.23" width="31.82" height="767.42" transform="translate(-793.58 464.54) rotate(-19.41)"/><rect x="406.19" y="3010.29" width="973.26" height="31.82" transform="translate(-516.54 203.31) rotate(-10.09)"/><rect x="450.37" y="3081.86" width="888.73" height="31.82" transform="translate(-529.05 204.75) rotate(-10.09)"/><rect x="499.04" y="3160.43" width="799.01" height="31.82" transform="translate(-542.77 206.64) rotate(-10.09)"/><rect x="549.48" y="3240.06" width="711.44" height="31.8" transform="translate(-572.99 216.94) rotate(-10.4)"/><rect x="572.64" y="3318.84" width="653.5" height="31.82" transform="translate(-570.51 209.24) rotate(-10.09)"/><rect x="597.3" y="3401.43" width="600.63" height="31.82" transform="translate(-585.02 210.2) rotate(-10.09)"/><rect x="1401.88" y="2049.11" width="31.82" height="589.36" transform="translate(-1321.29 2374.06) rotate(-59.46)"/><rect x="1419" y="1983.31" width="31.79" height="611.46" transform="translate(-1265.64 2364.9) rotate(-59.53)"/><rect x="1441.64" y="1917.31" width="31.82" height="640.49" transform="translate(-1210.27 2355.42) rotate(-59.45)"/><rect x="1459.45" y="1850.58" width="31.82" height="671.84" transform="translate(-1157.75 2342.16) rotate(-59.37)"/><rect x="1488.96" y="1794.96" width="31.79" height="688.81" transform="translate(-1102.3 2349.72) rotate(-59.49)"/><rect x="1537.79" y="1938.13" width="31.85" height="330.19" transform="translate(-1047.76 2367.65) rotate(-59.35)"/><rect x="1501.63" y="1873.25" width="31.8" height="284.27" transform="translate(-987.29 2316.3) rotate(-59.87)"/><rect x="1436.52" y="1810.5" width="31.81" height="205.86" transform="translate(-929.56 2224.74) rotate(-60.24)"/><path d="M989.74,3875.8a60,60,0,0,1,59.92-59.91,59.13,59.13,0,0,1,25.79,6.07c1.72-10.71,3.57-21.38,5.44-32.05a90.58,90.58,0,0,0-31.23-5.84,91.15,91.15,0,0,0-85.44,124.43l33.54-3.33A59.15,59.15,0,0,1,989.74,3875.8Z"/><path d="M913,3875.8c0-75.38,61.32-136.7,136.7-136.7a136.25,136.25,0,0,1,39.58,5.89c2-10.41,4.1-20.82,6.29-31.19a167.45,167.45,0,0,0-45.87-6.51c-92.92,0-168.52,75.59-168.52,168.51a168.07,168.07,0,0,0,5.11,40.45l32-3.18A136.15,136.15,0,0,1,913,3875.8Z"/><path d="M806.78,3874.2a238.28,238.28,0,0,0,5.23,49.43l32-3.18a205.67,205.67,0,0,1-5.41-46.25c0-113.9,92.65-206.55,206.53-206.55a205.4,205.4,0,0,1,58.74,8.63c2.37-10.34,4.77-20.66,7.27-31a237.47,237.47,0,0,0-66-9.5C913.7,3635.83,806.78,3742.76,806.78,3874.2Z"/><path d="M766.76,3870.58c0-152.52,124.1-276.62,276.62-276.62a275.54,275.54,0,0,1,77.76,11.32c2.67-10.27,5.49-20.47,8.29-30.68a306.89,306.89,0,0,0-86-12.46c-170.07,0-308.43,138.37-308.43,308.44a308.6,308.6,0,0,0,6,60.12l31.8-3.16A276.35,276.35,0,0,1,766.76,3870.58Z"/><path d="M690.75,3872.36c0-193.45,157.4-350.83,350.85-350.83a349.58,349.58,0,0,1,98.78,14.39c3-10.18,5.9-20.38,9-30.5a380.94,380.94,0,0,0-107.76-15.71c-211,0-382.66,171.65-382.66,382.65a382.6,382.6,0,0,0,6.08,65.89l31.67-3.15A350.68,350.68,0,0,1,690.75,3872.36Z"/><rect x="624.27" y="3478.24" width="542.17" height="31.81" transform="translate(-592.95 208.47) rotate(-10)"/><rect x="639.87" y="3578.49" width="186.44" height="31.82" transform="translate(-618.59 184.11) rotate(-10.09)"/><rect x="559.36" y="3666.41" width="181.16" height="31.8" transform="translate(-684.83 189.43) rotate(-10.9)"/><rect x="495.47" y="3743.04" width="196.51" height="31.83" transform="translate(-580.28 139.02) rotate(-8.99)"/><rect x="541.19" y="3803.51" width="136.09" height="31.8" transform="translate(-609.25 148.67) rotate(-9.3)"/><rect x="517.41" y="3872.97" width="150.63" height="31.81" transform="translate(-607.47 142.65) rotate(-9.1)"/><path d="M1003.5,4422.46c-16.59-1297.87,769.91-2090.94,777.87-2098.81l22.36,22.64c-7.84,7.76-784.84,791.92-768.41,2075.79Z"/><rect x="17.06" y="3938.76" width="1038.87" height="31.82" transform="translate(-317.66 56.25) rotate(-4.63)"/><rect x="3104.25" y="3288.24" width="21.22" height="32.46" transform="translate(-241.5 245.6) rotate(-4.35)"/><rect x="3159.05" y="3283.56" width="33.76" height="32.47" transform="translate(-246.09 255.95) rotate(-4.44)"/><path d="M3249.23,3320.59l-13.91-9.05-7.68.58-.44-5.88-5.2-3.37c1.62-2.46,3.09-4.67,4.43-6.67l-1.25-16.45,56.78-4.35-21.38,28.65C3260.39,3304.27,3256,3310.15,3249.23,3320.59Z"/><path d="M3203.9,3786.57a320.06,320.06,0,0,1-26.38-35l27.18-17.72a293.39,293.39,0,0,0,23.76,31.47Zm-47.7-73.52a294.64,294.64,0,0,1-15.31-41.31l31.22-9a263.19,263.19,0,0,0,13.61,36.72Zm-24.34-84.29a328.41,328.41,0,0,1-3.06-43.74l32.48-.11a298.52,298.52,0,0,0,2.74,39.37Zm31.58-83.57-32.26-3.67c1.59-14,3.94-28.38,7-42.65l31.77,6.78C3167.11,3518.91,3164.92,3532.2,3163.44,3545.19Zm16.68-78.47-31-9.57c4.32-14.05,9.13-27.58,14.19-40.46l30.23,11.86C3188.76,3440.72,3184.22,3453.49,3180.12,3466.72Zm29.58-75.32-29.31-14c6.67-13.94,13.34-26.68,19.61-38l28.37,15.81C3222.39,3366,3216,3378.11,3209.7,3391.4Z"/><path d="M3260.5,3846.55l-24.61-21.16,3.12-3.64c-1.34-1.17-2.68-2.38-4-3.55l21.76-24.11q7.38,6.67,15.47,13.17l13,10.56Z"/><rect x="3172.49" y="3877.88" width="51.18" height="32.49" transform="translate(-1839.51 3773.31) rotate(-49.23)"/><path d="M3136.35,3994.73c-8.59-9.51-13.86-15-13.94-15.12L3112.18,3969l23.46-27.26,24.6,21.16-4.34,5.09c1.39,1.53,2.92,3.22,4.56,5.05Z"/><path d="M3216.84,4399.17l-18.38-26.8a380.94,380.94,0,0,0,31-23.62l21.06,24.72A420.73,420.73,0,0,1,3216.84,4399.17Zm64.46-55.8L3256.86,4322a164.33,164.33,0,0,0,21.33-30.19l28.59,15.37A196.18,196.18,0,0,1,3281.3,4343.37Zm40.17-79.94-32.16-4.54a75.28,75.28,0,0,0,.74-10.64,77.89,77.89,0,0,0-1.5-15.12c-.55-2.7-1.18-5.41-1.89-8.17l31.44-8.15c.88,3.36,1.62,6.67,2.27,10a108.32,108.32,0,0,1,1.1,36.64Zm-47.68-74.15c-4.9-11-10.89-22.66-17.8-34.8l28.21-16.08a422.08,422.08,0,0,1,19.22,37.65Zm-38.58-68.59c-7.36-11.19-15-22.15-22.78-32.73l26.2-19.19c8.06,11,16.07,22.44,23.7,34.09ZM3188.1,4056c-8.88-11.29-17.47-21.74-25.37-31.06l24.77-21c8.12,9.6,17,20.37,26.14,32Z"/><path d="M3163.47,4442.36l-43-27,26.76-12.68c.28-.14,7.11-3.39,17.64-9.32l10.11,17.9,5.8,3.64-2,3.14,2,3.59c-2.35,1.33-4.56,2.54-6.56,3.63Z"/><path d="M3225.91,4485.4l-29.09-14.49q1.56-3.08,3-5.75l-4.67-2.92,17.28-27.5,32.09,20.14-9.29,13.92A169.11,169.11,0,0,0,3225.91,4485.4Z"/><path d="M3174.73,4581.82a154.63,154.63,0,0,1-1.25-19.55,177.81,177.81,0,0,1,4.32-38.27l31.71,7a146.61,146.61,0,0,0-3.55,31.27,117.28,117.28,0,0,0,1,15.34Z"/><path d="M3209.7,4656.6a147.4,147.4,0,0,1-14.6-19l27.34-17.55a109.76,109.76,0,0,0,11.32,14.68Z"/><path d="M1724.53,868.2h-117v-117h117Zm-89.89-27.07h62.82V778.3h-62.82Z"/><path d="M1850.48,863.91h-79.83V784.07h79.83Zm-61.35-18.49H1832V802.56h-42.87Z"/><path d="M1842.83,1047.55H1686.55V891.3h156.28Zm-129.21-27.07h102.14V918.37H1713.62Z"/><path d="M1641.06,1069.31h-39.91v-39.92h39.91Zm-30.67-9.24h21.43v-21.44h-21.43Z"/><path d="M1740,1178.42h-79.83v-79.83H1740Zm-61.35-18.48h42.87v-42.87h-42.87Z"/><path d="M1549.45,873.58h-62.53V811.06h62.53Zm-48-14.49H1535V825.55h-33.55Z"/><path d="M1403.86,1108.73h-62.52v-62.55h62.52Zm-48-14.49h33.54v-33.57h-33.54Z"/><path d="M1459.2,1154.53H1428V1123.3h31.25Zm-24-7.22H1452v-16.79h-16.81Z"/><path d="M1247.1,998.42h-31.25V967.17h31.25Zm-24-7.22h16.81V974.38h-16.81Z"/><path d="M1235.31,1216H1188.4v-46.92h46.91Zm-36-10.89h25.15V1180h-25.15Z"/><rect x="2708.16" y="1803.77" width="386.79" height="31.8" transform="translate(565.86 4324.62) rotate(-79.1)"/><rect x="2768.01" y="1871.59" width="363.13" height="31.84" transform="translate(565.66 4452.6) rotate(-79.71)"/><rect x="2824.92" y="1934.66" width="340.25" height="31.83" transform="translate(545.36 4553.28) rotate(-79.81)"/><rect x="2893.04" y="1992.59" width="296.15" height="31.84" transform="translate(521.8 4642.05) rotate(-79.71)"/><rect x="3013.81" y="1991.8" width="154.83" height="31.8" transform="translate(535.02 4663.32) rotate(-79.1)"/><rect x="2818.36" y="3294.27" width="31.84" height="58.91" transform="translate(-1456.83 4140.23) rotate(-60.32)"/><rect x="2824.73" y="3196.95" width="31.81" height="116.08" transform="translate(-1411.25 4020.25) rotate(-59.09)"/><rect x="2851.4" y="3152.45" width="31.82" height="114.62" transform="translate(-1363.16 4001.65) rotate(-58.83)"/><rect x="2950.03" y="2999.48" width="31.82" height="144.56" transform="matrix(0.51, -0.86, 0.86, 0.51, -1186.83, 4065.23)"/><rect x="2976.07" y="2950.55" width="31.85" height="149.35" transform="matrix(0.52, -0.86, 0.86, 0.52, -1145.85, 4016.33)"/><rect x="3011.12" y="2899.77" width="31.82" height="156.73" transform="translate(-1076.32 4071.17) rotate(-59.45)"/><rect x="3040.69" y="2852.09" width="31.82" height="163.75" transform="translate(-1025.2 4069.68) rotate(-59.38)"/><rect x="3072.96" y="2802.15" width="31.84" height="175.69" transform="translate(-951.45 4142.57) rotate(-60.32)"/><rect x="3106.14" y="2748.33" width="31.82" height="185.56" transform="translate(-911.19 4086.91) rotate(-59.47)"/><rect x="3135.31" y="2699.43" width="31.82" height="192.87" transform="translate(-882.8 4009.83) rotate(-58.33)"/><rect x="3176.44" y="2666.31" width="31.82" height="173.17" transform="translate(-800.92 4103.19) rotate(-59.46)"/><polygon points="3287.86 2770.63 3188.92 2707.94 3205.93 2681.03 3304.87 2743.72 3287.86 2770.63"/><rect x="3290.4" y="2663.72" width="31.81" height="65.81" transform="translate(-719.95 4108.27) rotate(-58.52)"/><rect x="2887.76" y="3103.64" width="31.83" height="126.4" transform="translate(-1282.04 4136.41) rotate(-60.52)"/><rect x="2916" y="3053.79" width="31.83" height="133.05" transform="translate(-1259.29 3995.67) rotate(-58.58)"/><rect x="2848.54" y="2524.45" width="31.82" height="144.13" transform="translate(264.14 5457.52) rotate(-89.92)"/><rect x="2781.56" y="2524.76" width="261.53" height="31.82"/><rect x="2938.96" y="2303.43" width="31.82" height="363.07" transform="translate(465.23 5435.9) rotate(-89.91)"/><rect x="2911.4" y="2270.16" width="31.82" height="323.65" transform="translate(486.68 5352.09) rotate(-89.83)"/><rect x="2859.69" y="2257.02" width="31.82" height="236.79" transform="translate(495.87 5247.45) rotate(-89.91)"/><polygon points="2433.06 2404.14 2324.94 2325.86 2696.56 2019.66 2716.8 2044.21 2376.94 2324.22 2451.71 2378.39 2433.06 2404.14"/><polygon points="2899.04 2338.33 2744.11 2337.87 2344.02 2041.78 2362.94 2016.19 2754.66 2306.1 2899.15 2306.51 2899.04 2338.33"/><rect x="2554.55" y="1760.72" width="31.81" height="339.64" transform="translate(-513 2839.66) rotate(-53.34)"/><rect x="2492.65" y="2395.08" width="31.8" height="103.5" transform="translate(-947.73 3024.68) rotate(-53.78)"/><rect x="2680.28" y="2515.8" width="31.81" height="130.44" transform="translate(-999.39 3104.29) rotate(-51.81)"/><rect x="2420.27" y="2403.97" width="358.23" height="31.8" transform="translate(-900.13 1814.89) rotate(-33.14)"/><polygon points="2371.91 2027.48 2351.29 2003.26 2634.72 1762.23 2317.64 1475.85 2563.39 1256.88 2308.23 968.15 2498.19 790.66 2296.5 468.25 2428.31 351.72 2278.35 202.23 2411.38 86.15 2432.33 110.1 2324.99 203.76 2474.78 353.09 2337.78 474.21 2539.09 796.02 2352.58 970.28 2608.23 1259.57 2365.26 1476.01 2683 1762.94 2371.91 2027.48"/><polygon points="2387.95 1685.19 2368.43 1660.09 2594.09 1484.73 2312.47 1202.67 2528.01 1013.37 2300.85 710.83 2464.59 552.37 2289.23 306.64 2402.33 206.52 2214.7 27.64 2236.63 4.62 2449.36 207.4 2331.77 311.45 2506.42 556.2 2343.17 714.17 2571.16 1017.86 2358.95 1204.2 2642.05 1487.74 2387.95 1685.19"/><polygon points="2210.55 185.03 2009.33 34.5 2028.41 9.02 2210.33 145.12 2388.31 8.94 2407.66 34.2 2210.55 185.03"/><rect x="2086.52" y="56.57" width="175.78" height="32.48" transform="translate(465.47 1419.23) rotate(-40.15)"/><rect x="1676.76" y="585.62" width="903.37" height="31.84" transform="translate(1339.24 2667.77) rotate(-84.88)"/><path d="M1753.7,3287.7H1412.37l-161.61-156.85,567.49,33.74Zm-329.63-28.92H1736.2l35.68-68-445.11-26.46Z"/><polygon points="1599.12 3165.19 1570.2 3165.19 1570.2 3026.31 1556.36 3026.31 1556.36 3162.65 1527.44 3162.65 1527.44 2997.38 1599.12 2997.38 1599.12 3165.19"/><polygon points="1641.88 3177.69 1612.96 3177.69 1612.96 2979.78 1599.12 2979.78 1599.12 3174.19 1570.2 3174.19 1570.2 2950.85 1641.88 2950.85 1641.88 3177.69"/><rect x="1546.16" y="3040.41" width="28.9" height="392.41" transform="translate(-1786.18 4544.36) rotate(-85.6)"/></g></g></svg>